<svg width="508" height="572" viewBox="0 0 508 572" fill="none" xmlns="http://www.w3.org/2000/svg">
<path d="M365.025 312.533C359.319 353.826 344.674 469.173 301.423 462.221C290.07 460.412 289.065 449.221 293.748 433.722L239.761 413.96L174.732 454.247C154.56 438.479 172.714 357.274 196.528 326.837L365.025 312.533Z" fill="#C7ABB3"/>
<path d="M254 208.188C332.188 208.188 395.572 162.817 395.572 106.849C395.572 50.8808 332.188 5.50977 254 5.50977C175.812 5.50977 112.428 50.8808 112.428 106.849C112.428 162.817 175.812 208.188 254 208.188Z" fill="#82FFB9"/>
<path d="M254 213.698C215.044 213.698 178.353 202.791 150.686 182.987C122.462 162.784 106.918 135.744 106.918 106.849C106.918 77.954 122.462 50.914 150.686 30.711C178.353 10.907 215.044 0 254 0C292.956 0 329.647 10.907 357.314 30.711C385.538 50.915 401.082 77.954 401.082 106.849C401.082 135.744 385.538 162.784 357.314 182.987C329.647 202.792 292.956 213.698 254 213.698ZM254 11.021C178.975 11.021 117.939 54.009 117.939 106.849C117.939 159.689 178.975 202.677 254 202.677C329.025 202.677 390.061 159.689 390.061 106.849C390.061 54.009 329.025 11.021 254 11.021Z" fill="#6CE49C"/>
<path d="M438.797 177.41C429.486 177.398 420.29 179.467 411.881 183.465C404.144 125.081 356.694 78.2006 296.733 71.8436C269.222 68.9186 241.483 68.8257 213.953 71.5666C152.78 77.6426 104.584 124.461 96.2788 183.537C88.0808 179.611 78.8988 177.41 69.2018 177.41C34.5308 177.41 6.4248 205.516 6.4248 240.187C6.4248 274.858 34.5308 302.964 69.2018 302.964C86.8638 302.964 102.811 295.66 114.218 283.92C127.085 303.367 147.245 317.489 170.791 322.349C225.679 333.677 280.566 333.796 335.454 322.705C359.704 317.805 380.348 303.531 393.574 283.703C404.995 295.569 421.027 302.964 438.797 302.964C473.468 302.964 501.574 274.857 501.574 240.187C501.574 205.517 473.468 177.41 438.797 177.41Z" fill="#C7ABB3"/>
<path d="M254.003 336.405C225.827 336.405 197.656 333.518 169.678 327.744C147.091 323.083 127.324 310.571 113.379 292.249C101.055 302.755 85.598 308.473 69.202 308.473C31.548 308.473 0.915039 277.839 0.915039 240.185C0.915039 202.531 31.549 171.898 69.202 171.898C77.071 171.898 84.708 173.206 91.993 175.793C97.329 148.505 111.186 123.121 131.478 103.694C153.632 82.4865 182.728 69.1285 213.407 66.0815C241.312 63.3169 269.427 63.4111 297.313 66.3624C327.421 69.5544 355.982 82.9914 377.737 104.196C397.64 123.598 411.141 148.774 416.218 175.721C423.443 173.181 431.009 171.897 438.797 171.897C476.451 171.897 507.084 202.531 507.084 240.184C507.084 277.838 476.45 308.472 438.797 308.472C422.282 308.472 406.74 302.681 394.379 292.041C380.088 310.695 359.777 323.409 336.544 328.104C309.162 333.638 281.58 336.404 254.003 336.405ZM114.219 278.407C115.13 278.408 116.026 278.633 116.828 279.064C117.63 279.495 118.313 280.118 118.815 280.877C131.225 299.635 150.08 312.445 171.905 316.95C225.808 328.074 280.466 328.193 334.363 317.302C356.851 312.758 376.251 299.739 388.991 280.643C389.449 279.958 390.054 279.384 390.763 278.964C391.471 278.544 392.265 278.287 393.086 278.214C393.906 278.141 394.733 278.252 395.505 278.541C396.277 278.829 396.974 279.286 397.546 279.879C408.452 291.21 423.102 297.451 438.798 297.451C470.375 297.451 496.064 271.761 496.064 240.184C496.064 208.607 470.374 182.918 438.798 182.918C430.213 182.918 421.953 184.776 414.247 188.439C413.463 188.812 412.601 188.995 411.733 188.971C410.865 188.948 410.014 188.719 409.251 188.304C408.487 187.89 407.833 187.301 407.34 186.585C406.848 185.87 406.532 185.048 406.418 184.186C402.822 157.053 389.905 131.448 370.044 112.088C350.054 92.6014 323.811 80.2544 296.151 77.3224C269.013 74.4502 241.653 74.3588 214.497 77.0495C186.259 79.8545 159.482 92.1444 139.1 111.656C118.867 131.024 105.598 156.824 101.735 184.303C101.615 185.161 101.293 185.978 100.798 186.689C100.302 187.399 99.6464 187.983 98.883 188.392C98.1197 188.802 97.2706 189.026 96.4047 189.045C95.5387 189.065 94.6803 188.881 93.899 188.506C86.156 184.799 77.847 182.919 69.202 182.919C37.625 182.919 11.936 208.609 11.936 240.185C11.936 271.762 37.626 297.452 69.202 297.452C84.796 297.452 99.38 291.282 110.267 280.078C110.781 279.55 111.395 279.13 112.074 278.843C112.753 278.556 113.482 278.408 114.219 278.407Z" fill="#A78992"/>
<path d="M312.222 281.659C272.989 289.02 233.757 288.941 194.524 281.423C170.448 276.809 151.285 259.64 145.325 237.494C142.207 225.908 140.55 214.323 140.352 202.737C139.579 157.373 176.753 119.46 225.375 114.976C245.06 113.157 264.873 113.218 284.545 115.16C331.446 119.777 367.66 156.596 367.66 200.389C367.66 212.256 366.128 224.123 363.064 235.99C357.084 259.146 337.359 276.942 312.222 281.659Z" fill="#FDEDC3"/>
<path d="M439.774 263.428C452.382 263.428 462.603 253.207 462.603 240.599C462.603 227.99 452.382 217.77 439.774 217.77C427.166 217.77 416.945 227.99 416.945 240.599C416.945 253.207 427.166 263.428 439.774 263.428Z" fill="#A98B94"/>
<path d="M65.3891 263.428C77.9972 263.428 88.2181 253.207 88.2181 240.599C88.2181 227.99 77.9972 217.77 65.3891 217.77C52.7809 217.77 42.5601 227.99 42.5601 240.599C42.5601 253.207 52.7809 263.428 65.3891 263.428Z" fill="#A98B94"/>
<path d="M181.567 209.733C187.943 209.733 193.111 204.65 193.111 198.38C193.111 192.11 187.943 187.027 181.567 187.027C175.191 187.027 170.023 192.11 170.023 198.38C170.023 204.65 175.191 209.733 181.567 209.733Z" fill="#5F5C5D"/>
<path d="M326.433 209.733C332.809 209.733 337.977 204.65 337.977 198.38C337.977 192.11 332.809 187.027 326.433 187.027C320.058 187.027 314.889 192.11 314.889 198.38C314.889 204.65 320.058 209.733 326.433 209.733Z" fill="#5F5C5D"/>
<path d="M196.121 195.886C195.719 195.885 195.318 195.837 194.928 195.742L167.383 189.016C166.092 188.701 164.98 187.885 164.29 186.75C163.6 185.614 163.39 184.252 163.705 182.961C163.86 182.321 164.14 181.719 164.529 181.188C164.917 180.657 165.407 180.207 165.969 179.866C166.532 179.524 167.156 179.297 167.807 179.197C168.457 179.097 169.121 179.126 169.76 179.283L197.305 186.009C198.495 186.299 199.537 187.016 200.234 188.022C200.932 189.029 201.237 190.256 201.091 191.472C200.945 192.688 200.359 193.809 199.443 194.622C198.527 195.435 197.346 195.885 196.121 195.886ZM315.103 195.886C313.877 195.887 312.693 195.439 311.775 194.625C310.858 193.812 310.271 192.691 310.125 191.474C309.979 190.256 310.284 189.028 310.983 188.021C311.682 187.013 312.726 186.298 313.918 186.009L341.463 179.283C342.102 179.127 342.766 179.098 343.416 179.198C344.066 179.298 344.69 179.526 345.252 179.867C345.815 180.209 346.304 180.658 346.693 181.189C347.082 181.719 347.362 182.322 347.518 182.961C347.674 183.6 347.703 184.264 347.602 184.914C347.502 185.564 347.275 186.188 346.933 186.75C346.592 187.312 346.143 187.802 345.612 188.191C345.081 188.579 344.479 188.86 343.84 189.016L316.295 195.742C315.905 195.837 315.504 195.885 315.103 195.886ZM114.215 289.432C112.983 289.431 111.788 289.017 110.819 288.257C109.85 287.497 109.164 286.434 108.869 285.239L95.3018 230.219C95.1286 229.516 95.0954 228.786 95.2043 228.071C95.3131 227.356 95.5618 226.669 95.9361 226.049C96.3104 225.43 96.803 224.891 97.3858 224.462C97.9687 224.033 98.6303 223.723 99.3328 223.55C100.752 223.201 102.251 223.429 103.502 224.185C104.752 224.941 105.652 226.162 106.002 227.581L119.569 282.601C119.769 283.413 119.782 284.26 119.607 285.078C119.431 285.895 119.072 286.663 118.556 287.321C118.04 287.979 117.381 288.511 116.629 288.877C115.877 289.243 115.051 289.433 114.215 289.432ZM393.578 289.215C392.739 289.215 391.912 289.024 391.159 288.657C390.405 288.289 389.746 287.754 389.23 287.093C388.714 286.432 388.356 285.662 388.183 284.842C388.009 284.022 388.026 283.173 388.23 282.36L402.003 227.557C402.384 226.166 403.294 224.98 404.539 224.253C405.784 223.526 407.265 223.316 408.663 223.667C410.061 224.019 411.266 224.904 412.019 226.134C412.772 227.363 413.014 228.838 412.692 230.244L398.919 285.047C398.619 286.237 397.932 287.293 396.964 288.048C395.997 288.803 394.805 289.214 393.578 289.215Z" fill="#5F5C5D"/>
<path d="M254 268.296C200.259 268.296 135.188 249.638 132.444 248.843C131.749 248.642 131.1 248.306 130.535 247.854C129.97 247.402 129.499 246.843 129.15 246.209C128.801 245.576 128.58 244.879 128.5 244.16C128.42 243.441 128.482 242.713 128.683 242.017C129.09 240.614 130.037 239.429 131.317 238.723C131.951 238.374 132.648 238.153 133.367 238.073C134.086 237.993 134.814 238.055 135.509 238.256C136.166 238.446 201.845 257.274 254 257.274C306.155 257.274 371.835 238.446 372.491 238.256C373.186 238.055 373.914 237.993 374.634 238.073C375.353 238.153 376.049 238.374 376.683 238.723C377.317 239.072 377.876 239.543 378.328 240.108C378.78 240.674 379.116 241.322 379.317 242.017C379.518 242.713 379.581 243.441 379.501 244.16C379.421 244.879 379.2 245.576 378.85 246.209C378.501 246.843 378.031 247.402 377.465 247.854C376.9 248.306 376.251 248.642 375.556 248.843C372.812 249.638 307.741 268.296 254 268.296Z" fill="white"/>
<path d="M254 310.36C224.557 310.36 185.677 300.335 165.122 294.359C152.972 290.827 143.319 282.034 138.637 270.233L116.31 213.966C116.043 213.294 115.912 212.575 115.922 211.851C115.933 211.128 116.087 210.414 116.374 209.749C116.661 209.085 117.075 208.484 117.595 207.98C118.114 207.476 118.728 207.079 119.4 206.812C120.073 206.545 120.791 206.414 121.515 206.424C122.239 206.435 122.953 206.589 123.617 206.876C124.281 207.162 124.883 207.577 125.387 208.097C125.891 208.616 126.287 209.23 126.554 209.902L148.881 266.169C152.299 274.784 159.339 281.201 168.198 283.777C188.191 289.589 225.923 299.34 254 299.34C282.077 299.34 319.809 289.589 339.802 283.777C348.661 281.202 355.701 274.784 359.119 266.17L381.446 209.903C381.985 208.545 383.042 207.456 384.383 206.877C385.725 206.297 387.242 206.274 388.6 206.813C389.959 207.352 391.047 208.409 391.627 209.75C392.206 211.092 392.229 212.609 391.69 213.967L369.363 270.234C364.681 282.034 355.028 290.827 342.878 294.359C322.323 300.335 283.443 310.36 254 310.36Z" fill="white"/>
<path d="M198.158 302.75C197.289 302.752 196.432 302.547 195.658 302.154C194.883 301.761 194.212 301.19 193.701 300.487C178.887 280.181 160.291 244.216 155.835 188.198C153.181 154.839 156.767 130.393 156.922 129.368C157.139 127.923 157.921 126.623 159.096 125.755C160.272 124.886 161.744 124.52 163.189 124.737C164.635 124.954 165.935 125.736 166.803 126.911C167.672 128.087 168.038 129.559 167.821 131.004C167.678 131.961 154.08 227.479 202.605 293.991C203.204 294.813 203.564 295.784 203.646 296.798C203.727 297.811 203.527 298.828 203.067 299.734C202.606 300.641 201.904 301.403 201.038 301.935C200.171 302.467 199.175 302.749 198.158 302.75ZM309.842 302.75C308.825 302.75 307.828 302.468 306.962 301.935C306.095 301.403 305.393 300.642 304.933 299.735C304.472 298.828 304.272 297.812 304.353 296.798C304.435 295.785 304.795 294.814 305.395 293.992C353.92 227.481 340.322 131.962 340.179 131.005C339.998 129.577 340.383 128.134 341.252 126.986C342.121 125.838 343.405 125.075 344.829 124.861C346.253 124.648 347.704 125 348.872 125.842C350.04 126.685 350.831 127.951 351.078 129.369C351.233 130.393 354.82 154.84 352.165 188.199C349.705 219.119 341.139 263.698 314.299 300.488C313.787 301.19 313.116 301.761 312.342 302.154C311.567 302.547 310.71 302.752 309.842 302.75ZM231.599 308.784C230.386 308.783 229.208 308.382 228.246 307.643C227.285 306.905 226.594 305.87 226.28 304.698C206.922 232.416 212.208 134.033 212.443 129.881C212.525 128.422 213.184 127.055 214.274 126.082C215.364 125.108 216.796 124.608 218.255 124.69C219.715 124.772 221.081 125.431 222.055 126.521C223.028 127.611 223.529 129.043 223.447 130.502C223.39 131.502 218.031 231.296 236.926 301.847C237.145 302.664 237.173 303.521 237.008 304.35C236.843 305.179 236.49 305.96 235.974 306.631C235.459 307.301 234.797 307.845 234.038 308.218C233.279 308.592 232.445 308.785 231.599 308.784ZM276.414 308.784C275.568 308.785 274.734 308.591 273.975 308.217C273.217 307.844 272.554 307.301 272.039 306.63C271.524 305.959 271.171 305.179 271.006 304.35C270.841 303.52 270.869 302.664 271.088 301.847C289.982 231.296 284.624 131.502 284.567 130.502C284.526 129.78 284.628 129.056 284.867 128.373C285.106 127.69 285.477 127.061 285.959 126.521C286.441 125.981 287.025 125.542 287.677 125.228C288.329 124.914 289.036 124.731 289.759 124.69C292.785 124.524 295.4 126.842 295.571 129.881C295.806 134.034 301.092 232.416 281.734 304.698C281.419 305.869 280.728 306.904 279.766 307.643C278.805 308.382 277.626 308.783 276.414 308.784Z" fill="white"/>
<path d="M254 188.748C196.88 188.748 125.407 175.747 124.692 175.616C123.254 175.352 121.981 174.528 121.151 173.325C120.321 172.122 120.003 170.638 120.267 169.201C120.531 167.763 121.356 166.49 122.559 165.66C123.762 164.83 125.245 164.512 126.683 164.776C127.388 164.906 197.899 177.727 254.001 177.727C310.102 177.727 380.613 164.906 381.319 164.776C382.756 164.512 384.24 164.83 385.443 165.66C386.646 166.49 387.47 167.763 387.734 169.201C387.998 170.638 387.681 172.122 386.851 173.325C386.021 174.528 384.747 175.352 383.31 175.616C382.593 175.748 311.119 188.748 254 188.748Z" fill="white"/>
<path d="M254 43.5938C163.268 43.5938 114.123 69.5778 114.123 69.5778C99.2869 84.4138 88.6899 107.842 81.5289 129.076C72.2699 156.53 71.8919 186.194 80.3739 213.899C81.7539 218.406 84.5963 222.326 88.4522 225.038C92.308 227.75 96.9576 229.1 101.666 228.874C106.375 228.649 110.874 226.862 114.454 223.794C118.033 220.726 120.489 216.553 121.432 211.935L131.459 162.85C132.533 157.571 134.909 152.645 138.371 148.518C141.833 144.391 146.271 141.194 151.282 139.218C169.239 132.143 202.392 123.025 254.001 123.025C305.61 123.025 338.763 132.143 356.72 139.218C361.731 141.194 366.169 144.391 369.631 148.518C373.093 152.645 375.469 157.571 376.543 162.85L386.57 211.935C387.548 216.724 390.15 221.028 393.937 224.119C397.723 227.21 402.461 228.899 407.349 228.899C411.89 228.899 416.31 227.442 419.961 224.741C423.611 222.041 426.299 218.241 427.628 213.899C436.109 186.194 435.732 156.531 426.473 129.076C419.312 107.842 408.714 84.4128 393.879 69.5778C393.877 69.5778 344.732 43.5938 254 43.5938Z" fill="#82FFB9"/>
<path d="M407.348 234.41C394.71 234.41 383.699 225.422 381.169 213.039L371.142 163.954C369.316 155.014 363.169 147.684 354.699 144.346C336.395 137.134 304.065 128.537 254 128.537C203.935 128.537 171.606 137.134 153.301 144.346C144.831 147.683 138.683 155.013 136.858 163.953L126.831 213.038C124.301 225.421 113.291 234.409 100.652 234.409C88.8321 234.409 78.5641 226.815 75.1041 215.511C66.2191 186.488 66.6351 155.99 76.3061 127.314C85.6651 99.566 97.0761 78.829 110.226 65.68C110.615 65.2905 111.06 64.9618 111.547 64.705C113.603 63.618 162.948 38.082 253.999 38.082C344.843 38.082 394.378 63.613 396.442 64.7C396.932 64.958 397.38 65.289 397.772 65.68C410.922 78.829 422.333 99.566 431.692 127.314C441.364 155.989 441.78 186.488 432.894 215.511C429.436 226.815 419.168 234.41 407.348 234.41ZM254 117.515C305.795 117.515 339.546 126.529 358.74 134.091C370.692 138.801 379.366 149.139 381.94 161.747L391.967 210.832C393.454 218.107 399.923 223.388 407.348 223.388C414.293 223.388 420.325 218.926 422.358 212.285C430.563 185.479 430.181 157.315 421.249 130.837C412.591 105.163 402.28 86.079 390.596 74.098C384.279 71.023 336.313 49.104 254 49.104C171.688 49.104 123.713 71.028 117.403 74.098C105.72 86.079 95.4091 105.162 86.7511 130.836C77.8201 157.315 77.4371 185.479 85.6421 212.285C87.6751 218.926 93.7071 223.388 100.652 223.388C108.077 223.388 114.546 218.107 116.033 210.832L126.06 161.747C128.634 149.14 137.308 138.801 149.26 134.091C168.454 126.53 202.205 117.515 254 117.515Z" fill="#6CE49C"/>
<path d="M374.018 107.079C372.655 107.078 371.341 106.572 370.329 105.658C369.318 104.745 368.68 103.489 368.54 102.133C368.401 100.778 368.768 99.4183 369.572 98.3176C370.376 97.217 371.559 96.4533 372.893 96.1739L392.749 92.0099C394.169 91.7353 395.64 92.0301 396.845 92.8308C398.05 93.6315 398.892 94.8738 399.189 96.2896C399.486 97.7054 399.214 99.1811 398.432 100.398C397.651 101.616 396.422 102.477 395.011 102.796L375.155 106.96C374.773 107.04 374.392 107.079 374.018 107.079ZM380.23 125.3C378.867 125.299 377.553 124.793 376.541 123.879C375.53 122.966 374.892 121.71 374.752 120.354C374.613 118.999 374.98 117.639 375.784 116.539C376.588 115.438 377.771 114.674 379.105 114.395L398.961 110.231C400.381 109.956 401.852 110.251 403.057 111.052C404.262 111.852 405.104 113.095 405.401 114.511C405.698 115.926 405.426 117.402 404.644 118.619C403.863 119.837 402.634 120.698 401.223 121.017L381.367 125.181C380.993 125.26 380.612 125.3 380.23 125.3ZM133.982 107.079C133.6 107.079 133.219 107.039 132.845 106.96L112.989 102.796C111.558 102.496 110.306 101.64 109.507 100.417C108.707 99.1931 108.427 97.7022 108.727 96.2719C109.027 94.8416 109.883 93.589 111.106 92.7897C112.33 91.9905 113.82 91.71 115.251 92.0099L135.107 96.1739C136.443 96.4512 137.628 97.2142 138.434 98.3153C139.239 99.4164 139.608 100.777 139.468 102.134C139.328 103.491 138.689 104.748 137.676 105.662C136.662 106.575 135.346 107.08 133.982 107.079ZM127.77 125.3C127.388 125.3 127.007 125.26 126.633 125.181L106.777 121.017C106.069 120.868 105.397 120.582 104.799 120.174C104.202 119.765 103.69 119.243 103.295 118.638C102.495 117.414 102.215 115.923 102.515 114.493C102.663 113.785 102.95 113.113 103.358 112.515C103.766 111.918 104.288 111.407 104.894 111.011C106.118 110.211 107.608 109.931 109.039 110.231L128.895 114.395C130.231 114.672 131.416 115.435 132.222 116.536C133.027 117.637 133.396 118.998 133.256 120.355C133.116 121.712 132.477 122.969 131.464 123.883C130.45 124.796 129.134 125.301 127.77 125.3Z" fill="#6CE49C"/>
<path d="M265.099 214.48C264.309 214.48 263.53 214.292 262.827 213.932C254.078 209.471 245.569 213.729 245.21 213.912C242.76 215.167 239.74 214.217 238.468 211.774C237.854 210.604 237.729 209.238 238.12 207.976C238.511 206.714 239.386 205.658 240.554 205.04C241.094 204.755 253.909 198.138 267.379 205.006C267.965 205.305 268.486 205.716 268.913 206.217C269.34 206.717 269.665 207.296 269.868 207.922C270.071 208.548 270.149 209.207 270.097 209.863C270.045 210.519 269.865 211.158 269.566 211.744C269.146 212.568 268.507 213.26 267.719 213.743C266.93 214.226 266.023 214.481 265.099 214.48Z" fill="#5F5C5D"/>
<path d="M472.476 286.437C464.562 270.653 439.525 260.718 409.938 273.88C381.207 285.946 347.927 321.108 343.338 370.212C336.554 419.061 360.898 460.912 386.1 479.238C411.887 498.827 438.533 494.892 449.854 481.34C473.85 452.354 442.237 426.908 447.694 382.325C452.596 337.678 489.193 320.149 472.476 286.437Z" fill="#FFFF9F"/>
<path d="M425.485 468.912C424.17 468.913 422.899 468.443 421.903 467.586C421.335 467.099 407.848 455.444 395.754 436.182C379.566 410.399 373.74 383.235 378.905 357.625C385.94 322.746 409.064 302.674 427.226 291.978C428.484 291.263 429.972 291.071 431.37 291.444C432.768 291.817 433.963 292.725 434.698 293.972C435.432 295.219 435.647 296.704 435.295 298.108C434.943 299.511 434.054 300.72 432.819 301.474C416.592 311.032 395.94 328.91 389.71 359.804C378.54 415.178 428.567 458.782 429.074 459.216C429.93 459.948 430.541 460.926 430.824 462.016C431.107 463.107 431.049 464.258 430.658 465.314C430.267 466.371 429.561 467.282 428.636 467.926C427.711 468.569 426.611 468.913 425.485 468.912Z" fill="#FCE2A4"/>
<path d="M449.179 352.631C450.268 348.694 447.906 344.604 443.902 343.497C439.899 342.389 435.771 344.683 434.682 348.621C433.592 352.558 435.955 356.648 439.958 357.755C443.962 358.862 448.09 356.568 449.179 352.631Z" fill="#5F5C5D"/>
<path d="M399.045 338.764C400.134 334.826 397.772 330.737 393.769 329.629C389.765 328.522 385.637 330.816 384.548 334.754C383.459 338.691 385.821 342.781 389.824 343.888C393.828 344.995 397.956 342.701 399.045 338.764Z" fill="#5F5C5D"/>
<path d="M422.458 498.24C412.883 498.24 398.547 495.606 382.814 483.657C361.96 468.461 345.299 441.184 339.327 412.454C339.18 411.746 339.174 411.015 339.309 410.304C339.444 409.593 339.718 408.916 340.114 408.311C340.511 407.706 341.023 407.185 341.622 406.778C342.22 406.371 342.892 406.085 343.601 405.938C344.309 405.791 345.04 405.784 345.751 405.919C346.462 406.054 347.139 406.328 347.744 406.725C348.349 407.122 348.87 407.634 349.277 408.232C349.685 408.83 349.97 409.503 350.117 410.211C356.624 441.506 374.647 464.085 389.346 474.78L389.439 474.85C411.889 491.924 435.634 489.764 445.626 477.812C457.455 463.523 453.712 450.5 448.532 432.474C444.414 418.145 439.746 401.904 442.23 381.645C444.447 361.439 452.706 346.706 459.993 333.706C469.164 317.347 475.79 305.527 467.537 288.887C460.57 274.991 437.956 267.444 412.187 278.905L412.077 278.952C394.741 286.22 377.434 301.743 365.78 320.477C365.008 321.718 363.775 322.602 362.351 322.933C360.928 323.265 359.431 323.017 358.19 322.245C356.949 321.473 356.066 320.24 355.734 318.817C355.403 317.393 355.65 315.896 356.422 314.655C369.417 293.765 388.128 277.058 407.762 268.811C426.494 260.495 441.453 261.583 450.706 263.962C462.86 267.086 472.589 274.379 477.398 283.969C488.247 305.842 479.191 321.994 469.605 339.095C462.832 351.177 455.156 364.871 453.175 382.916C450.957 401.016 455.295 416.111 459.123 429.429C464.538 448.272 469.653 466.069 454.097 484.859C447.203 493.108 436.06 497.974 423.509 498.229C423.167 498.237 422.815 498.24 422.458 498.24Z" fill="#FCE2A4"/>
<path d="M415.971 360.378C414.608 360.378 413.224 360.197 411.848 359.816C403.619 357.54 398.776 348.994 401.052 340.765C401.416 339.495 402.266 338.421 403.419 337.775C404.571 337.129 405.931 336.964 407.204 337.316C408.477 337.668 409.559 338.509 410.216 339.655C410.872 340.801 411.05 342.16 410.709 343.436C410.325 344.833 410.51 346.325 411.224 347.586C411.938 348.846 413.123 349.772 414.519 350.16C415.916 350.545 417.409 350.36 418.67 349.645C419.93 348.931 420.856 347.745 421.243 346.349C421.607 345.079 422.457 344.005 423.61 343.359C424.762 342.713 426.122 342.548 427.395 342.9C428.668 343.252 429.75 344.093 430.407 345.239C431.063 346.385 431.241 347.744 430.9 349.02C429.004 355.873 422.759 360.378 415.971 360.378Z" fill="#5F5C5D"/>
<path d="M174.738 459.753C173.509 459.753 172.315 459.342 171.348 458.584C164.92 453.559 155.383 438.617 163.735 395.006C169.154 366.713 180.322 338.623 192.189 323.443C192.635 322.873 193.188 322.396 193.818 322.04C194.448 321.684 195.142 321.455 195.86 321.367C196.578 321.279 197.307 321.333 198.004 321.527C198.701 321.721 199.353 322.05 199.923 322.495C200.494 322.941 200.97 323.494 201.326 324.124C201.683 324.754 201.911 325.448 201.999 326.166C202.087 326.884 202.033 327.613 201.839 328.31C201.646 329.007 201.317 329.66 200.871 330.23C190.002 344.135 179.673 370.374 174.559 397.078C169.497 423.511 170.901 444.245 178.135 449.9C178.705 450.345 179.182 450.899 179.538 451.529C179.894 452.159 180.123 452.853 180.211 453.571C180.299 454.289 180.245 455.018 180.051 455.715C179.858 456.412 179.529 457.065 179.083 457.635C178.568 458.295 177.909 458.83 177.156 459.197C176.403 459.564 175.576 459.754 174.738 459.753Z" fill="#A78992"/>
<path d="M335.133 430.785L273.558 448L123.966 374.744C117.742 371.696 115.167 364.18 118.215 357.956L125.887 342.289C128.935 336.065 136.451 333.49 185.541 357.53L335.133 430.785Z" fill="white"/>
<path d="M316.424 474.501C315.584 474.501 314.755 474.309 314 473.939L121.542 379.692C119.409 378.654 117.502 377.204 115.933 375.425C114.364 373.645 113.163 371.572 112.4 369.326C111.625 367.084 111.303 364.71 111.451 362.342C111.6 359.974 112.217 357.66 113.266 355.532L120.938 339.865C125.317 330.923 136.155 327.209 145.099 331.589L337.557 425.837C338.207 426.155 338.788 426.598 339.266 427.141C339.745 427.684 340.112 428.315 340.346 429C340.581 429.685 340.678 430.409 340.633 431.131C340.588 431.853 340.4 432.559 340.082 433.209L321.373 471.415C320.92 472.341 320.216 473.121 319.341 473.667C318.466 474.212 317.455 474.501 316.424 474.501ZM137.168 340.769C135.849 340.768 134.557 341.137 133.438 341.834C132.318 342.531 131.417 343.528 130.836 344.712L123.164 360.378C122.755 361.207 122.515 362.109 122.457 363.032C122.399 363.955 122.524 364.88 122.826 365.754C123.124 366.629 123.592 367.437 124.203 368.131C124.815 368.824 125.558 369.389 126.389 369.794L313.898 461.618L327.76 433.31L140.251 341.486C139.292 341.014 138.237 340.769 137.168 340.769Z" fill="#DEDEDE"/>
<path d="M436.143 387.55L369.302 438.393L337.287 422.715C330.585 419.433 322.492 422.206 319.21 428.907L305.177 457.563C301.895 464.265 304.667 472.358 311.369 475.64L369.691 504.201C373.391 506.013 377.522 506.76 381.622 506.359C385.723 505.958 389.631 504.425 392.91 501.931L452.956 456.257C457.089 453.113 460.333 448.948 462.368 444.171C464.404 439.394 465.162 434.169 464.567 429.011L461.007 398.145C459.626 386.172 445.737 380.253 436.143 387.55Z" fill="#FC80A5"/>
<path d="M405.021 492.724L396.269 417.887L428.682 393.232L437.434 468.07" fill="white"/>
<path d="M437.427 473.582C436.078 473.58 434.776 473.084 433.768 472.186C432.761 471.288 432.118 470.051 431.961 468.711L423.209 393.873C423.125 393.154 423.183 392.426 423.381 391.73C423.578 391.034 423.911 390.383 424.359 389.816C424.808 389.248 425.364 388.774 425.996 388.422C426.628 388.069 427.323 387.844 428.042 387.76C428.761 387.676 429.489 387.734 430.185 387.931C430.882 388.129 431.532 388.461 432.1 388.91C432.668 389.359 433.141 389.915 433.494 390.547C433.847 391.179 434.071 391.874 434.155 392.593L442.907 467.431C442.998 468.204 442.923 468.988 442.689 469.73C442.455 470.472 442.066 471.156 441.549 471.737C441.031 472.319 440.396 472.783 439.685 473.101C438.975 473.419 438.205 473.583 437.427 473.582ZM405.014 498.236C403.665 498.234 402.363 497.738 401.355 496.84C400.348 495.942 399.705 494.705 399.548 493.365L390.796 418.527C390.712 417.808 390.77 417.08 390.968 416.384C391.165 415.688 391.498 415.037 391.947 414.47C392.395 413.902 392.952 413.428 393.583 413.076C394.215 412.723 394.91 412.498 395.629 412.414C396.348 412.33 397.076 412.388 397.772 412.586C398.468 412.783 399.119 413.116 399.687 413.565C400.254 414.013 400.728 414.57 401.081 415.201C401.433 415.833 401.658 416.528 401.742 417.247L410.494 492.085C410.585 492.858 410.51 493.642 410.276 494.384C410.042 495.126 409.653 495.81 409.136 496.391C408.618 496.973 407.983 497.437 407.272 497.755C406.562 498.073 405.792 498.237 405.014 498.236Z" fill="#D36086"/>
<path d="M379.491 512.001C375.342 512.001 371.168 511.061 367.268 509.151L308.945 480.59C299.526 475.977 295.616 464.561 300.228 455.141L314.261 426.485C315.354 424.238 316.882 422.229 318.756 420.577C320.63 418.924 322.814 417.659 325.18 416.856C327.542 416.04 330.042 415.7 332.536 415.857C335.03 416.013 337.469 416.663 339.71 417.768L368.671 431.951L432.806 383.167H432.807C438.907 378.526 446.762 377.549 453.815 380.555C460.867 383.56 465.603 389.901 466.482 397.517L470.042 428.383C471.469 440.747 466.201 453.11 456.294 460.646L396.248 506.32C391.305 510.078 385.425 512.001 379.491 512.001ZM331.352 426.846C330.479 426.846 329.603 426.991 328.752 427.282C327.757 427.62 326.839 428.152 326.05 428.847C325.262 429.543 324.619 430.387 324.159 431.332L310.126 459.988C308.186 463.95 309.831 468.752 313.792 470.692L372.115 499.253C377.823 502.048 384.513 501.396 389.574 497.546L449.62 451.872C456.446 446.68 460.075 438.162 459.092 429.644L455.532 398.778C455.113 395.148 452.856 392.124 449.493 390.692C446.132 389.259 442.388 389.725 439.477 391.938L372.637 442.78C371.823 443.399 370.854 443.779 369.837 443.879C368.82 443.978 367.795 443.793 366.877 443.343L334.862 427.665C333.77 427.128 332.569 426.847 331.352 426.846Z" fill="#D36086"/>
<path d="M174.741 454.242C194.913 470.01 265.596 406.307 236.274 383.386C206.953 360.465 191.44 409.387 191.44 409.387" fill="#C7ABB3"/>
<path d="M182.869 462.231C177.496 462.231 173.795 460.497 171.347 458.584C170.196 457.683 169.449 456.363 169.271 454.912C169.094 453.461 169.5 451.999 170.4 450.848C171.3 449.697 172.621 448.95 174.071 448.772C175.522 448.594 176.984 449 178.135 449.901C180.748 451.945 186.039 451.587 192.644 448.919C215.036 439.879 235.543 415.01 237.594 400.446C238.376 394.894 236.878 390.853 232.88 387.728C227.237 383.317 222.2 381.877 217.475 383.334C206.621 386.68 198.792 404.481 196.691 411.058C196.246 412.449 195.267 413.607 193.97 414.277C192.673 414.948 191.162 415.077 189.77 414.635C188.378 414.193 187.219 413.217 186.547 411.92C185.875 410.624 185.746 409.113 186.187 407.721C186.564 406.533 195.628 378.559 214.203 372.811C222.518 370.238 231.084 372.335 239.669 379.045C246.781 384.605 249.838 392.537 248.508 401.983C247.06 412.27 240.276 424.252 229.409 435.724C219.426 446.261 207.53 454.796 196.771 459.139C191.221 461.38 186.634 462.231 182.869 462.231Z" fill="#A78992"/>
<path d="M363.035 326.836C356.129 375.538 340.369 468.491 301.417 462.233C258.169 455.284 306.57 380.204 306.57 380.204L324.231 350.601C324.231 350.601 363.797 321.466 363.035 326.836Z" fill="#C7ABB3"/>
<path d="M305.13 468.057C303.617 468.057 302.088 467.933 300.539 467.685C288.239 465.704 282.812 458.901 280.424 453.544C269.422 428.858 298.57 382.434 301.93 377.222C302.722 375.993 303.969 375.129 305.398 374.82C306.826 374.511 308.319 374.782 309.548 375.574C310.776 376.366 311.64 377.613 311.949 379.042C312.258 380.47 311.987 381.963 311.195 383.192C311.119 383.31 303.494 395.205 297.212 409.589C289.451 427.358 287.065 441.376 290.492 449.061C292.381 453.297 296.24 455.83 302.289 456.804C307.285 457.605 311.895 456.29 316.375 452.781C335.109 438.11 349.92 385.746 355.995 312.709C356.055 311.987 356.256 311.285 356.587 310.641C356.919 309.998 357.374 309.426 357.926 308.958C358.479 308.49 359.118 308.136 359.807 307.916C360.497 307.695 361.223 307.613 361.944 307.674C363.401 307.795 364.749 308.489 365.693 309.605C366.638 310.72 367.1 312.165 366.979 313.622C365.214 334.831 361.643 366.273 354.645 395.619C346.631 429.226 336.041 451.377 323.17 461.457C317.565 465.847 311.514 468.057 305.13 468.057Z" fill="#A78992"/>
<path d="M401.678 268.39C401.678 268.39 433.596 244.031 461.061 261.983C482.713 276.136 476.627 308.202 476.627 308.202" fill="#82FFB9"/>
<path d="M476.633 313.713C475.822 313.714 475.02 313.535 474.286 313.191C473.551 312.846 472.902 312.343 472.385 311.719C471.867 311.094 471.494 310.363 471.291 309.577C471.089 308.791 471.063 307.971 471.214 307.174C471.265 306.899 476.298 278.525 458.046 266.595C434.229 251.028 405.303 272.557 405.013 272.776C403.849 273.658 402.383 274.042 400.936 273.844C399.489 273.647 398.18 272.883 397.295 271.722C396.411 270.561 396.023 269.096 396.218 267.65C396.413 266.204 397.174 264.894 398.334 264.009C398.689 263.738 407.176 257.321 419.31 253.232C435.898 247.641 451.38 249.071 464.075 257.37C474.334 264.075 480.682 275.267 482.434 289.737C483.707 300.251 482.109 308.868 482.041 309.229C481.802 310.488 481.131 311.625 480.144 312.443C479.157 313.262 477.915 313.711 476.633 313.713Z" fill="#6CE49C"/>
<path d="M463.221 339.099C448.385 319.318 417.154 309.241 405.447 306.044C402.574 305.264 399.514 305.575 396.856 306.918L385.298 312.733C382.468 314.157 379.266 314.67 376.133 314.201C372.999 313.732 370.088 312.304 367.798 310.114C361.5 304.089 361.439 293.996 367.751 287.986C374.734 281.337 384.572 273.37 395.743 268.416C398.688 267.11 402.017 267.012 405.081 268.006C417.414 272.006 451.536 284.255 475.437 304.215C479.972 308.002 481.444 314.299 479.128 319.734C476.16 326.699 471.014 335.625 463.221 339.099Z" fill="#82FFB9"/>
<path d="M463.223 344.611C462.367 344.611 461.523 344.412 460.757 344.029C459.992 343.646 459.326 343.091 458.812 342.406C444.745 323.649 413.298 313.901 403.995 311.36C402.435 310.938 400.774 311.109 399.333 311.841L387.775 317.656C379.908 321.612 370.351 320.182 363.989 314.096C361.951 312.138 360.328 309.79 359.219 307.19C358.11 304.591 357.538 301.795 357.535 298.969C357.542 293.247 359.82 287.929 363.951 283.996C370.687 277.583 381.282 268.801 393.509 263.379C397.64 261.547 402.355 261.329 406.78 262.764C420.356 267.167 454.565 279.606 478.968 299.986C485.392 305.351 487.493 314.155 484.198 321.894C480.864 329.717 474.908 339.924 465.464 344.134C464.759 344.448 463.995 344.611 463.223 344.611ZM402.294 300.111C403.838 300.111 405.386 300.316 406.898 300.729C419.083 304.057 447.876 313.497 464.412 331.888C467.972 328.949 471.311 324.02 474.058 317.574C475.435 314.341 474.57 310.672 471.903 308.445C448.977 289.299 416.345 277.453 403.38 273.248C401.539 272.651 399.62 272.725 397.975 273.454C387.192 278.236 377.653 286.167 371.55 291.978C370.599 292.879 369.843 293.965 369.328 295.17C368.813 296.374 368.55 297.672 368.555 298.982C368.549 300.319 368.816 301.643 369.341 302.873C369.865 304.103 370.636 305.212 371.606 306.133C373.075 307.534 374.94 308.447 376.948 308.747C378.955 309.048 381.007 308.721 382.821 307.811L394.379 301.996C396.834 300.758 399.545 300.113 402.294 300.111Z" fill="#6CE49C"/>
<path d="M306.755 540.459C306.755 554.361 290.252 565.641 269.878 565.641C249.504 565.641 233.001 554.361 233.001 540.459V523.182C233.001 509.259 249.504 498 269.878 498C290.252 498 306.755 509.259 306.755 523.182V540.459Z" fill="#777677"/>
<path d="M269.877 571.152C246.108 571.152 227.488 557.67 227.488 540.459V523.182C227.488 505.971 246.107 492.49 269.877 492.49C293.646 492.49 312.265 505.971 312.265 523.182V540.459C312.265 557.67 293.646 571.152 269.877 571.152ZM269.877 503.512C252.874 503.512 238.51 512.52 238.51 523.183V540.46C238.51 551.123 252.874 560.131 269.877 560.131C286.88 560.131 301.244 551.123 301.244 540.46V523.182C301.244 512.52 286.88 503.512 269.877 503.512Z" fill="#605C5D"/>
</svg>
